Coordinates
version=1
nRows=29
nColumns=24
inDegrees=yes

Units are S.I. units (second, meters, Newtons, ...)
Angles are in degrees.

endheader
time	pelvis_tilt	pelvis_list	pelvis_rotation	pelvis_tx	pelvis_ty	pelvis_tz	hip_flexion_r	hip_adduction_r	hip_rotation_r	knee_angle_r	ankle_angle_r	subtalar_angle_r	mtp_angle_r	hip_flexion_l	hip_adduction_l	hip_rotation_l	knee_angle_l	ankle_angle_l	subtalar_angle_l	mtp_angle_l	lumbar_extension	lumbar_bending	lumbar_rotation
      1.40416667	     -1.35181599	     -1.18515380	    -12.19180016	      0.99677092	      0.98651346	      0.27592941	    -19.79097155	      1.31382260	     11.64363883	     -6.00970120	      8.96911915	     -9.85252383	     17.40554830	     24.15978104	     -5.55401578	    -11.32283007	      4.74964356	      7.19577133	     -8.42282156	      3.78852063	     -1.95682898	      0.97334326	     11.72040378
      1.40833333	     -1.25999784	     -1.11689691	    -12.26771148	      1.00289485	      0.98610587	      0.27567665	    -20.06639054	      1.12799516	     11.64355556	     -6.30548942	      8.75331285	     -9.91086697	     17.46071152	     24.05159411	     -5.46883041	    -11.30634670	      4.45828219	      7.31195991	     -8.68088092	      3.78684916	     -2.02011188	      0.81851664	     11.84726161
      1.41250000	     -1.23998425	     -1.04490972	    -12.35300384	      1.00902687	      0.98563099	      0.27540851	    -20.22601067	      0.95449446	     11.63342909	     -6.67552025	      8.54722860	     -9.90280554	     17.47576152	     24.05296813	     -5.40142947	    -11.31492768	      4.04593493	      7.42602511	     -8.85009279	      3.78788288	     -2.00162413	      0.68747361	     11.87803686
      1.41666667	     -1.19631333	     -0.96154000	    -12.42446470	      1.01522779	      0.98520326	      0.27511170	    -20.39599425	      0.76638758	     11.52950538	     -7.07170659	      8.35555305	     -9.76518780	     17.61269242	     24.03098888	     -5.31045228	    -11.30621265	      3.58289987	      7.56025440	     -8.97724974	      3.80279371	     -1.98655175	      0.53652258	     12.08143376
      1.42083333	     -1.16222824	     -0.86191060	    -12.50633121	      1.02147192	      0.98479191	      0.27483624	    -20.54522916	      0.56551786	     11.48879918	     -7.48341773	      8.11664543	     -9.76133787	     17.65028812	     24.01382261	     -5.20672263	    -11.29342337	      3.09077696	      7.63342361	     -9.13776803	      3.80890542	     -1.94683543	      0.36768916	     12.11747920
      1.42500000	     -1.12532171	     -0.74874582	    -12.57566845	      1.02776040	      0.98440498	      0.27452774	    -20.68454123	      0.35586825	     11.43299404	     -7.91578593	      7.85636672	     -9.74644202	     17.68432809	     23.99923629	     -5.08064344	    -11.26338250	      2.56193761	      7.65341068	     -9.27705684	      3.81514781	     -1.93592464	      0.18882719	     12.17097342
      1.42916667	     -1.06178629	     -0.61073222	    -12.65444474	      1.03414821	      0.98407259	      0.27420826	    -20.81121995	      0.10620737	     11.23887958	     -8.42049331	      7.65968721	     -9.48746158	     18.04690839	     23.94418174	     -4.92221237	    -11.22817233	      2.02427185	      7.63996136	     -9.40661324	      3.88582166	     -1.91157334	     -0.02825896	     12.45727088
      1.43333333	     -1.01907771	     -0.47262252	    -12.71533197	      1.04054718	      0.98374130	      0.27387769	    -20.93352426	     -0.12433153	     11.15299122	     -8.88724916	      7.33647678	     -9.51957356	     18.11463535	     23.92296654	     -4.76013627	    -11.18579402	      1.44770945	      7.58543128	     -9.54043737	      3.90115962	     -1.85538565	     -0.24381608	     12.47673673
      1.43750000	     -0.98244056	     -0.31212014	    -12.77442577	      1.04702671	      0.98342013	      0.27351790	    -21.01639662	     -0.38115590	     10.97887300	     -9.40055844	      6.96766541	     -9.44832567	     23.17140497	     23.87878612	     -4.56298492	    -11.01292570	      0.92090977	      7.38703501	     -9.90644655	      5.16768636	     -1.79760165	     -0.47797440	     12.49977134
      1.44166667	     -0.92487981	     -0.13701015	    -12.84178873	      1.05350782	      0.98316343	      0.27317258	    -21.09635345	     -0.65256138	     10.83000607	     -9.96360356	      6.65454739	     -9.38414626	     23.23260622	     23.84588477	     -4.35952506	    -11.01872147	      0.31194260	      7.23530470	     -9.91935585	      5.18894002	     -1.75895828	     -0.73525318	     12.71605768
      1.44583333	     -0.88730638	      0.04381810	    -12.88519104	      1.06003399	      0.98289736	      0.27277745	    -21.14342897	     -0.91712197	     10.65059117	    -10.54652261	      6.30452027	     -9.28502422	     23.34143174	     23.83735199	     -4.13968523	    -10.94597566	     -0.30021931	      6.99895161	    -10.04648445	      5.22960712	     -1.68350021	     -0.98971976	     12.80201638
      1.45000000	     -0.84360244	      0.24870681	    -12.93178960	      1.06659652	      0.98266609	      0.27237285	    -21.16377769	     -1.20735876	     10.44307196	    -11.18468903	      5.96431461	     -9.17150682	     23.70449600	     23.80440131	     -3.88583991	    -10.81189339	     -0.88173731	      6.71228996	    -10.30097953	      5.36634988	     -1.61023726	     -1.27958107	     12.91781384
      1.45416667	     -0.80524467	      0.45501140	    -12.96785957	      1.07320681	      0.98247616	      0.27196603	    -21.17847133	     -1.48938287	     10.27360391	    -11.81437866	      5.48389329	     -9.16857083	     23.76951854	     23.78608347	     -3.63317209	    -10.75477201	     -1.48097581	      6.39386723	    -10.35197164	      5.38915621	     -1.52417075	     -1.56444882	     12.95870263
      1.45833333	     -0.77425868	      0.68210063	    -12.99983984	      1.07982465	      0.98228043	      0.27149035	    -21.11856635	     -1.79688526	      9.98105548	    -12.56949181	      5.13417783	     -8.91529792	     24.07580105	     23.77657276	     -3.34898450	    -10.63238704	     -2.07297574	      5.98805206	    -10.58770015	      5.50260887	     -1.42681245	     -1.85801184	     13.06651086
      1.46250000	     -0.71169514	      0.89846338	    -13.00470035	      1.08646685	      0.98218093	      0.27101848	    -21.11859611	     -2.07995640	      9.77104697	    -13.26855516	      4.60842331	     -8.96286364	     24.13695897	     23.75634255	     -3.06880400	    -10.57332668	     -2.72030304	      5.64133472	    -10.63048052	      5.52345157	     -1.35967338	     -2.15296884	     13.09635475
      1.46666667	     -0.72436255	      1.16163565	    -13.02425048	      1.09312386	      0.98199191	      0.27050029	    -20.94853212	     -2.41042278	      9.44739907	    -14.12529825	      4.21956593	     -8.63475879	     24.55581831	     23.79910693	     -2.75044836	    -10.44162773	     -3.31045277	      5.16682884	    -10.84020375	      5.66955930	     -1.19671368	     -2.48577536	     13.17448628
      1.47083333	     -0.66786422	      1.42145092	    -13.00622847	      1.09986241	      0.98195211	      0.26999176	    -20.90027448	     -2.72881285	      9.20532520	    -14.88415280	      3.60923901	     -8.63753096	     24.69503271	     23.78209628	     -2.41581135	    -10.37485485	     -3.94297138	      4.77320141	    -10.86410348	      5.71766661	     -1.10931749	     -2.84622802	     13.20299955
      1.47500000	     -0.68276091	      1.68649609	    -13.00126997	      1.10652689	      0.98182153	      0.26940120	    -20.66973190	     -3.05436874	      8.84871454	    -15.84474309	      3.20517656	     -8.30194827	     25.26340270	     23.86525459	     -2.09237366	    -10.28822320	     -4.61741939	      4.33592486	    -11.04141316	      5.90709952	     -0.94457252	     -3.16304933	     13.25538776
      1.47916667	     -0.60795210	      1.95020975	    -12.94853659	      1.11325334	      0.98187028	      0.26882109	    -20.58605711	     -3.36779436	      8.57025616	    -16.69934663	      2.51842595	     -8.31082941	     25.41375859	     23.83946618	     -1.73798178	    -10.20585530	     -5.26229384	      3.95161866	    -11.01544036	      5.95618035	     -0.87914593	     -3.52755597	     13.26762510
      1.48333333	     -0.54086384	      2.24577956	    -12.94984937	      1.11993540	      0.98194354	      0.26821596	    -20.38613370	     -3.75261214	      8.19404712	    -17.72367560	      1.95168343	     -8.07869246	     31.79218131	     23.77490123	     -1.34910744	    -10.06112291	     -5.79176055	      3.39118681	    -11.40030093	      8.08519168	     -0.80813465	     -3.89683281	     13.35998990
      1.48750000	     -0.53575327	      2.51678251	    -12.86643115	      1.12665552	      0.98195433	      0.26756332	    -20.15656382	     -4.05162017	      7.88210299	    -18.70887887	      1.27738084	     -7.99678476	     31.81744530	     23.86887004	     -1.00453329	    -10.04038099	     -6.53895020	      3.09858314	    -11.25001218	      8.09559563	     -0.66029876	     -4.25212067	     13.30736361
      1.49166667	     -0.53237554	      2.77652218	    -12.81894117	      1.13324611	      0.98197551	      0.26689086	    -19.83061054	     -4.36114442	      7.54336378	    -19.86394568	      0.74594648	     -7.72301631	     31.90348057	     23.97340377	     -0.68748195	    -10.07605626	     -7.30755177	      2.83348652	    -11.12026455	      8.12046701	     -0.52618801	     -4.55875565	     13.27687990
      1.49583333	     -0.50111052	      3.04757538	    -12.74384681	      1.13988492	      0.98208107	      0.26619700	    -19.53715763	     -4.67774806	      7.21613975	    -21.00387968	      0.11765375	     -7.52688242	     32.00867498	     24.03036305	     -0.33790350	    -10.07101179	     -8.04161478	      2.56053519	    -11.05134959	      8.14978804	     -0.41947663	     -4.90202023	     13.24769023
      1.50000000	     -0.46246650	      3.32246542	    -12.68280139	      1.14651201	      0.98223987	      0.26551078	    -19.21317174	     -5.00630579	      6.91125318	    -22.20062880	     -0.53117040	     -7.34152855	     32.10376739	     24.05759516	      0.01573587	    -10.06595075	     -8.73529427	      2.31040890	    -10.97522783	      8.17398652	     -0.31862537	     -5.24371158	     13.23583688
      1.50416667	     -0.43077747	      3.58150490	    -12.59452472	      1.15305821	      0.98240195	      0.26477194	    -18.85520224	     -5.30918044	      6.60858555	    -23.44483869	     -1.16129511	     -7.13643627	     32.22029602	     24.11725898	      0.35564675	    -10.07020905	     -9.48439754	      2.10050570	    -10.91893182	      8.20022178	     -0.22794095	     -5.57288008	     13.20945703
      1.50833333	     -0.38051650	      3.84905847	    -12.51825382	      1.15963342	      0.98263520	      0.26405063	    -18.48827392	     -5.62933001	      6.32775185	    -24.72804925	     -1.83495049	     -6.98163788	     32.30217121	     24.11851241	      0.70972880	    -10.08170251	    -10.15763639	      1.90402627	    -10.83513170	      8.21693062	     -0.14951995	     -5.90350346	     13.19555970
      1.51250000	     -0.33493870	      4.09824501	    -12.43321081	      1.16611076	      0.98288362	      0.26330697	    -18.08251175	     -5.92504685	      6.07357385	    -26.06589523	     -2.48091213	     -6.82602903	     32.36996822	     24.13436066	      1.04382094	    -10.09991579	    -10.86016675	      1.75102266	    -10.75333014	      8.23053869	     -0.08375768	     -6.21774201	     13.16797792
      1.51666667	     -0.28604971	      4.33401834	    -12.34391297	      1.17254934	      0.98315422	      0.26254656	    -17.65789767	     -6.20568295	      5.84524590	    -27.43758256	     -3.09725807	     -6.67169661	     32.43505902	     24.14736920	      1.36365747	    -10.14700102	    -11.56999721	      1.62916678	    -10.66924614	      8.24443951	     -0.03316525	     -6.52040277	     13.13040574
      1.52083333	     -0.21835013	      4.56652191	    -12.25077441	      1.17897080	      0.98349118	      0.26178542	    -17.23107244	     -6.48246650	      5.63643013	    -28.83766409	     -3.73764063	     -6.58930589	     32.45719609	     24.10480559	      1.69298940	    -10.17291546	    -12.21037005	      1.51636003	    -10.57797304	      8.24823282	     -0.00315611	     -6.81035508	     13.10035249
